<?xml version="1.0" standalone="no"?>
<!DOCTYPE svg PUBLIC "-//W3C//DTD SVG 20010904//EN"
 "http://www.w3.org/TR/2001/REC-SVG-20010904/DTD/svg10.dtd">
<svg version="1.0" xmlns="http://www.w3.org/2000/svg"
 width="260.000000pt" height="260.000000pt" viewBox="0 0 260.000000 260.000000"
 preserveAspectRatio="xMidYMid meet">
<metadata>
Created by potrace 1.16, written by Peter Selinger 2001-2019
</metadata>
<g transform="translate(0.000000,260.000000) scale(0.100000,-0.100000)"
fill="#000000" stroke="none">
<path d="M1100 2575 c-180 -29 -384 -112 -540 -218 -96 -67 -250 -221 -317
-317 -161 -237 -241 -507 -230 -785 8 -205 49 -360 143 -545 178 -350 495
-589 896 -677 115 -25 379 -24 496 1 264 56 478 171 662 356 236 236 364 529
377 865 14 357 -119 696 -372 951 -183 183 -404 303 -665 360 -103 22 -342 27
-450 9z m409 -504 c20 -11 42 -25 48 -33 6 -7 145 -249 309 -538 360 -635 340
-564 220 -773 -43 -75 -82 -139 -86 -142 -5 -3 -845 1459 -858 1496 -2 5 68 9
163 9 144 0 171 -3 204 -19z m-376 -545 c97 -173 177 -319 177 -325 0 -8 -105
-11 -366 -11 -226 0 -364 4 -362 9 7 22 363 641 368 641 3 0 85 -142 183 -314z
m438 -776 c54 -91 98 -168 98 -172 1 -13 -973 -10 -1006 3 -48 18 -82 59 -159
194 -41 72 -74 134 -74 138 0 4 235 6 522 5 l522 -3 97 -165z"/>
</g>
</svg>
