<?xml version="1.0" standalone="no"?>
<!DOCTYPE svg PUBLIC "-//W3C//DTD SVG 20010904//EN"
 "http://www.w3.org/TR/2001/REC-SVG-20010904/DTD/svg10.dtd">
<svg version="1.0" xmlns="http://www.w3.org/2000/svg"
 width="1680.000000pt" height="1680.000000pt" viewBox="0 0 1680.000000 1680.000000"
 preserveAspectRatio="xMidYMid meet">
<metadata>
Created by potrace 1.16, written by Peter Selinger 2001-2019
</metadata>
<g transform="translate(0.000000,1680.000000) scale(0.100000,-0.100000)"
fill="#000000" stroke="none">
<path d="M7940 16786 c-404 -21 -864 -80 -1255 -163 -109 -23 -445 -106 -620
-153 -64 -17 -369 -114 -440 -140 -16 -6 -79 -29 -139 -51 -60 -22 -123 -46
-140 -53 -17 -8 -74 -31 -126 -52 -52 -20 -102 -40 -110 -45 -8 -4 -73 -33
-145 -64 -184 -82 -532 -258 -720 -366 -88 -51 -172 -98 -186 -106 -15 -7 -32
-20 -39 -28 -7 -8 -17 -15 -22 -15 -20 0 -412 -263 -580 -389 -265 -199 -464
-361 -632 -516 -508 -465 -910 -919 -1263 -1425 -116 -166 -243 -359 -278
-422 -9 -16 -108 -183 -135 -228 -73 -121 -269 -502 -349 -680 -19 -41 -44
-97 -57 -125 -37 -81 -87 -204 -138 -338 -14 -37 -37 -95 -50 -130 -28 -72
-134 -390 -163 -492 -154 -527 -233 -920 -303 -1520 -54 -457 -54 -1313 0
-1770 71 -606 147 -987 303 -1520 48 -164 188 -573 226 -660 5 -11 24 -56 41
-100 116 -291 315 -699 481 -990 51 -88 97 -169 103 -180 23 -40 84 -135 199
-310 316 -480 689 -930 1118 -1350 319 -312 553 -512 908 -777 85 -63 519
-356 566 -382 17 -9 59 -35 95 -57 36 -23 85 -52 110 -65 25 -14 77 -42 115
-64 155 -88 368 -198 510 -263 83 -38 168 -77 190 -87 93 -42 251 -107 425
-173 457 -174 1006 -325 1475 -406 257 -45 313 -53 400 -61 50 -5 164 -18 255
-29 458 -54 1276 -50 1755 8 326 40 564 78 800 127 215 45 286 62 555 136 148
40 711 228 775 258 11 5 61 25 110 45 50 20 104 42 120 50 17 7 84 37 150 66
256 111 688 338 935 491 220 136 229 142 435 284 788 545 1544 1300 2089 2089
110 160 256 382 256 390 0 2 21 36 46 75 115 178 364 653 473 905 29 66 61
138 71 160 10 22 33 76 50 120 17 44 35 89 40 100 29 61 217 625 258 775 74
269 91 340 136 555 75 358 139 825 159 1160 6 105 11 359 11 565 0 522 -17
776 -84 1235 -38 259 -96 562 -131 687 -11 36 -19 75 -19 85 0 11 -11 55 -24
99 -13 43 -34 117 -46 164 -52 196 -202 646 -259 780 -11 25 -34 81 -51 125
-31 79 -38 97 -78 185 -11 25 -38 86 -60 135 -54 123 -196 404 -277 550 -37
66 -75 134 -83 150 -9 17 -42 72 -74 123 -32 51 -58 95 -58 98 0 11 -285 432
-372 550 -492 662 -1014 1196 -1651 1689 -273 212 -670 479 -919 618 -109 61
-137 77 -224 125 -124 69 -330 172 -456 227 -56 26 -125 57 -153 70 -260 121
-747 295 -1100 393 -455 127 -837 200 -1365 263 -339 40 -954 56 -1370 35z
m809 -5252 c132 -72 186 -136 233 -274 l23 -65 6 -1125 c3 -619 9 -1138 13
-1155 4 -16 25 -86 47 -155 43 -138 66 -174 151 -245 52 -42 59 -45 115 -45
49 0 67 5 109 31 95 61 161 118 219 191 33 40 91 109 130 153 91 102 198 246
269 358 30 49 87 133 127 187 40 54 91 135 114 179 24 43 65 117 93 163 28 45
84 153 126 238 42 85 100 200 131 255 30 55 78 152 106 215 29 63 74 165 102
225 27 61 73 173 102 250 98 260 119 295 242 380 57 40 70 45 118 45 30 0 55
5 55 10 0 7 338 10 994 10 653 0 997 -3 1001 -10 3 -5 36 -10 72 -10 54 0 75
-5 127 -32 82 -44 151 -112 165 -163 15 -56 14 -151 -4 -235 -24 -113 -148
-411 -206 -491 -11 -15 -52 -90 -93 -166 -104 -197 -176 -304 -381 -568 -26
-33 -90 -121 -143 -195 -53 -74 -126 -171 -161 -215 -36 -44 -101 -134 -146
-201 -45 -66 -139 -192 -210 -280 -70 -87 -153 -196 -183 -241 -30 -46 -59
-83 -64 -83 -5 0 -13 -11 -18 -25 -5 -14 -32 -58 -59 -98 -71 -106 -147 -264
-161 -335 -29 -147 18 -258 183 -431 234 -245 427 -437 557 -554 272 -244 358
-327 371 -359 7 -18 57 -76 109 -128 144 -142 476 -590 545 -735 40 -85 65
-197 65 -290 0 -139 -29 -192 -168 -311 l-75 -64 -1029 0 -1029 0 -122 46
c-182 69 -318 142 -457 248 -152 114 -264 224 -402 393 -102 125 -190 221
-427 469 -120 124 -252 235 -356 298 -58 35 -64 36 -155 36 l-95 0 -62 -50
c-79 -64 -168 -177 -177 -226 -4 -20 -19 -62 -33 -93 -43 -96 -63 -162 -63
-210 0 -26 -7 -73 -15 -104 -8 -32 -15 -79 -15 -104 0 -43 -16 -182 -39 -342
-11 -75 -92 -251 -115 -251 -8 0 -18 -9 -21 -20 -4 -13 -15 -20 -31 -20 -15 0
-24 -6 -24 -15 0 -10 -11 -15 -35 -15 -19 0 -35 -4 -35 -10 0 -5 -24 -10 -54
-10 -30 0 -58 -4 -61 -10 -8 -14 -842 -14 -850 0 -4 6 -53 10 -116 10 -66 0
-109 4 -109 10 0 6 -30 10 -69 10 -52 0 -70 4 -75 15 -4 11 -22 15 -76 15 -51
0 -82 6 -110 20 -25 13 -59 20 -94 20 -43 0 -101 17 -273 79 -512 185 -661
256 -972 464 -221 147 -297 206 -481 371 -306 275 -422 389 -466 458 -24 36
-72 97 -107 135 -82 87 -292 349 -384 479 -39 54 -141 207 -228 339 -86 132
-169 258 -184 280 -49 70 -266 417 -316 503 -26 46 -53 86 -60 89 -7 2 -16 15
-19 27 -3 13 -21 46 -40 73 -19 28 -53 88 -76 134 -23 46 -75 138 -115 204
-87 144 -703 1372 -776 1547 -28 68 -87 198 -130 289 -104 217 -129 293 -129
383 0 96 19 129 106 188 67 46 71 47 147 48 44 0 77 4 77 10 0 7 285 10 835
10 550 0 835 -3 835 -10 0 -5 26 -10 58 -10 45 0 68 -6 110 -31 61 -34 154
-124 202 -194 43 -62 136 -250 171 -345 75 -203 114 -294 171 -395 34 -60 94
-175 134 -255 89 -181 189 -360 365 -655 166 -277 225 -363 393 -579 190 -246
337 -377 485 -433 40 -15 44 -15 53 0 5 10 21 17 37 17 32 0 130 85 154 135
23 48 76 207 88 266 20 101 31 363 36 858 4 416 2 509 -11 585 -9 50 -24 152
-35 226 -26 173 -42 224 -93 301 -92 138 -197 214 -366 264 -124 36 -146 47
-168 80 -15 24 -15 28 10 80 32 65 127 155 216 205 34 19 83 49 108 66 l47 32
1064 1 1064 1 66 -36z"/>
</g>
</svg>
